<?xml version="1.0" standalone="no"?>
<!DOCTYPE svg PUBLIC "-//W3C//DTD SVG 20010904//EN"
 "http://www.w3.org/TR/2001/REC-SVG-20010904/DTD/svg10.dtd">
<svg version="1.0" xmlns="http://www.w3.org/2000/svg"
 width="225.000000pt" height="225.000000pt" viewBox="0 0 225.000000 225.000000"
 preserveAspectRatio="xMidYMid meet">
<metadata>
Created by potrace 1.11, written by Peter Selinger 2001-2013
</metadata>
<g transform="translate(0.000000,225.000000) scale(0.100000,-0.100000)"
fill="#000000" stroke="none">
<path d="M940 2205 c-428 -67 -795 -412 -892 -837 -26 -117 -29 -344 -5 -458
91 -436 449 -784 887 -861 96 -17 294 -17 390 0 438 77 793 417 888 850 24
108 23 348 -1 461 -40 187 -138 368 -279 516 -258 269 -613 388 -988 329z
m360 -141 c458 -86 791 -484 790 -942 -1 -209 -75 -415 -212 -589 -126 -159
-301 -271 -516 -330 -81 -23 -118 -27 -227 -27 -136 0 -199 10 -325 51 -279
93 -504 321 -599 607 -200 606 260 1239 905 1245 56 1 139 -6 184 -15z"/>
<path d="M850 1643 c-146 -136 -303 -284 -350 -330 l-85 -83 63 0 62 0 0 -330
0 -330 195 0 195 0 0 270 0 270 190 0 190 0 0 -270 0 -270 195 0 195 0 0 330
0 330 65 0 66 0 -96 91 -95 91 0 209 0 208 -130 3 -129 3 -3 -89 -3 -89 -124
117 c-68 64 -127 116 -130 116 -3 0 -125 -111 -271 -247z"/>
<path d="M990 810 l0 -240 130 0 130 0 0 240 0 240 -130 0 -130 0 0 -240z"/>
</g>
</svg>
